# xmcd
#
# Track frame offsets: 
#        150
#        27584
#        47592
#        76834
#        100952
#        121123
#        139382
#        159207
#        178680
#        204636
#        235630
#        244415
#
# Disc length: 3563 seconds
#
# Revision: 1
# Processed by: cddbd v1.5.2PL0 Copyright (c) Steve Scherf et al.
# Submitted via: ExactAudioCopy v1.0b3
#
DISCID=9a0de90c
DTITLE=Kozmic Blue - Diamonds And Glass
DYEAR=1999
DGENRE=Blues
TTITLE0=Sad Eyes Said I
TTITLE1=I`ll Keep Trying
TTITLE2=Bad For Your Soul
TTITLE3=When Charlie Smiled
TTITLE4=Sorry
TTITLE5=Free With You
TTITLE6=Breakfast `Lone In Bed
TTITLE7=Slim Slow Slider
TTITLE8=Follow Your Heart
TTITLE9=Diamonds And Glass
TTITLE10=Mercedes Benz
TTITLE11=Thank You
EXTD=YEAR: 1999
EXTT0=
EXTT1=
EXTT2=
EXTT3=
EXTT4=
EXTT5=
EXTT6=
EXTT7=
EXTT8=
EXTT9=
EXTT10=
EXTT11=
PLAYORDER=
